<svg width="130" height="130" viewBox="0 0 130 130" fill="none" xmlns="http://www.w3.org/2000/svg">
<path d="M65 130C79.509 130 92.9078 125.246 103.724 117.211C102.689 98.4165 97.0137 84.4994 65.0028 84.4994C32.992 84.4994 27.3108 98.4165 26.2764 117.211C37.0922 125.246 50.491 130 65 130Z" fill="#DEE1E4"/>
<path d="M103.724 117.211C119.669 105.366 130 86.3895 130 65C130 29.1015 100.899 0 65 0C29.1015 0 0 29.1015 0 65C0 86.3895 10.3315 105.366 26.2764 117.211C27.3108 98.4165 32.992 84.4994 65.0028 84.4994C97.0137 84.4994 102.689 98.4165 103.724 117.211Z" fill="#F3F4F5"/>
<ellipse cx="66" cy="54.183" rx="24" ry="23.662" fill="#D6D9DD"/>
</svg>
